<svg width="867" height="853" viewBox="0 0 867 853" fill="none" xmlns="http://www.w3.org/2000/svg">
<g filter="url(#filter0_d_12_48)">
<path fill-rule="evenodd" clip-rule="evenodd" d="M482.804 1.00076C496.61 0.893902 507.889 11.9998 507.996 25.8065L512.992 671.305C512.993 671.388 512.994 671.471 512.995 671.554L512.996 671.623C512.997 671.746 512.997 671.87 512.997 671.994L482.804 1.00076ZM482.804 1.00076L512.997 672.023C512.981 707.911 475.827 737 429.997 737C384.157 737 346.997 707.898 346.997 672C346.997 636.102 384.157 607 429.997 607C441.545 607 452.542 608.847 462.533 612.184L457.998 26.1935C457.891 12.3868 468.997 1.10763 482.804 1.00076ZM722.437 35.3148C710.461 28.4444 695.182 32.5836 688.312 44.56C681.441 56.5364 685.581 71.8148 697.557 78.6852C739.598 102.802 765.453 134.758 782.385 183.485C799.854 233.758 807.736 301.626 812.022 397.121C812.641 410.914 824.325 421.594 838.118 420.975C851.911 420.356 862.591 408.672 861.972 394.879C857.674 299.139 849.685 224.83 829.615 167.073C809.007 107.77 775.655 65.8437 722.437 35.3148ZM224.573 44.116C231.688 32.2837 247.049 28.46 258.881 35.5756C306.075 63.9567 340.605 96.6128 364.08 151.502C386.8 204.627 398.494 277.114 404.951 383.485C405.788 397.267 395.294 409.118 381.512 409.954C367.73 410.791 355.88 400.296 355.043 386.515C348.637 280.981 337.225 215.864 318.108 171.163C299.746 128.228 273.707 102.837 233.113 78.4243C221.281 71.3087 217.457 55.9483 224.573 44.116ZM34.3826 350.089C48.1406 351.253 58.3502 363.349 57.1865 377.107C45.4695 515.631 81.7502 613.065 141.292 678.428C201.257 744.256 287.401 780.383 380.139 790.81C472.905 801.24 570.36 785.675 650.409 750.247C730.831 714.654 790.543 660.554 813.443 596.186C818.071 583.178 832.369 576.384 845.377 581.012C858.385 585.64 865.179 599.938 860.551 612.946C831.454 694.729 758.479 757.095 670.645 795.969C582.437 835.008 476.065 851.911 374.553 840.497C273.013 829.08 174.427 789.052 104.329 712.099C33.8075 634.683 -5.30798 522.712 7.36444 372.893C8.52816 359.135 20.6246 348.925 34.3826 350.089ZM288.289 306.599C301.68 399.672 310.497 528.986 310.497 691.026C310.497 704.833 299.304 716.026 285.497 716.026C271.69 716.026 260.497 704.833 260.497 691.026C260.497 530.567 251.752 403.755 238.799 313.719C232.313 268.641 224.852 233.345 217.121 207.887C213.253 195.15 209.463 185.367 205.945 178.259L205.905 178.178C201.378 188.681 196.299 205.524 191.491 230.258C178.774 295.672 169.997 404.707 169.997 561.526C169.997 575.333 158.804 586.526 144.997 586.526C131.19 586.526 119.997 575.333 119.997 561.526C119.997 403.595 128.782 290.817 142.41 220.716C149.082 186.392 157.454 159.225 168.464 142.213C173.877 133.849 182.398 124.058 195.323 120.393C210.154 116.187 223.012 121.987 231.619 129.445C239.643 136.398 245.808 146.082 250.756 156.078C255.881 166.433 260.599 178.987 264.963 193.358C273.697 222.117 281.603 260.122 288.289 306.599ZM212.373 166.842C212.357 166.856 212.334 166.877 212.302 166.904C212.332 166.874 212.354 166.853 212.37 166.839C212.386 166.824 212.394 166.818 212.394 166.819C212.395 166.82 212.387 166.828 212.373 166.842ZM615.997 691C615.997 470.626 625.196 329.254 638.635 247.426C644.128 213.981 650.045 192.455 655.321 179.873C655.544 180.289 655.771 180.72 656.002 181.166C659.735 188.38 663.712 198.066 667.763 210.245C675.858 234.582 683.64 267.023 690.405 305.555C703.917 382.525 712.997 481.66 712.997 584.474C712.997 598.281 724.19 609.474 737.997 609.474C751.804 609.474 762.997 598.281 762.997 584.474C762.997 478.987 753.702 376.948 739.652 296.91C732.635 256.939 724.339 221.917 715.207 194.464C710.645 180.748 705.722 168.457 700.411 158.19C695.29 148.293 688.935 138.541 680.806 131.545C672.2 124.136 658.846 117.83 643.342 122.667C629.918 126.855 621.359 137.642 615.936 146.902C604.81 165.901 596.234 197.081 589.296 239.323C575.173 325.317 565.997 470.016 565.997 691C565.997 704.807 577.19 716 590.997 716C604.804 716 615.997 704.807 615.997 691ZM661.5 168.724C661.5 168.725 661.481 168.744 661.442 168.779C661.48 168.74 661.5 168.723 661.5 168.724Z" fill="url(#paint0_linear_12_48)"/>
<path d="M507.996 25.8065L507.496 25.8104V25.8104L507.996 25.8065ZM512.992 671.305L512.492 671.309L512.492 671.312L512.992 671.305ZM512.995 671.554L513.495 671.55L513.495 671.549L512.995 671.554ZM512.996 671.623L513.496 671.619V671.619L512.996 671.623ZM512.997 671.994L512.498 672.017L513.497 671.994H512.997ZM512.997 672.023L513.497 672.023V672.012L513.497 672.001L512.997 672.023ZM462.533 612.184L462.375 612.658L463.039 612.88L463.033 612.18L462.533 612.184ZM457.998 26.1935L458.498 26.1896L457.998 26.1935ZM688.312 44.56L687.878 44.3112L688.312 44.56ZM722.437 35.3148L722.686 34.8811L722.437 35.3148ZM697.557 78.6852L697.308 79.1189L697.557 78.6852ZM782.385 183.485L782.857 183.321L782.385 183.485ZM812.022 397.121L812.522 397.099L812.022 397.121ZM838.118 420.975L838.141 421.474L838.118 420.975ZM861.972 394.879L862.471 394.857L861.972 394.879ZM829.615 167.073L829.142 167.237L829.615 167.073ZM258.881 35.5756L258.623 36.0041L258.881 35.5756ZM224.573 44.116L225.001 44.3737L224.573 44.116ZM364.08 151.502L364.54 151.306L364.08 151.502ZM404.951 383.485L405.45 383.455L404.951 383.485ZM381.512 409.954L381.481 409.455L381.512 409.954ZM355.043 386.515L355.542 386.484L355.043 386.515ZM318.108 171.163L318.568 170.967L318.108 171.163ZM233.113 78.4243L233.371 77.9958L233.113 78.4243ZM57.1865 377.107L57.6848 377.149L57.1865 377.107ZM34.3826 350.089L34.4247 349.591L34.3826 350.089ZM141.292 678.428L141.662 678.092L141.292 678.428ZM380.139 790.81L380.195 790.313L380.139 790.81ZM650.409 750.247L650.611 750.704L650.409 750.247ZM813.443 596.186L813.914 596.354L813.443 596.186ZM845.377 581.012L845.545 580.541L845.377 581.012ZM860.551 612.946L861.022 613.114L860.551 612.946ZM670.645 795.969L670.442 795.512L670.645 795.969ZM374.553 840.497L374.497 840.994L374.553 840.497ZM104.329 712.099L103.959 712.436L104.329 712.099ZM7.36444 372.893L6.86622 372.851L7.36444 372.893ZM288.289 306.599L288.784 306.528L288.289 306.599ZM238.799 313.719L238.304 313.79L238.799 313.719ZM217.121 207.887L217.599 207.742L217.121 207.887ZM205.945 178.259L206.393 178.037L206.393 178.037L205.945 178.259ZM205.905 178.178L206.353 177.956L205.873 176.988L205.445 177.98L205.905 178.178ZM191.491 230.258L191.982 230.353L191.491 230.258ZM142.41 220.716L141.919 220.621L142.41 220.716ZM168.464 142.213L168.045 141.941L168.464 142.213ZM195.323 120.393L195.186 119.912L195.323 120.393ZM231.619 129.445L231.292 129.823L231.619 129.445ZM250.756 156.078L250.308 156.3L250.756 156.078ZM264.963 193.358L265.442 193.213L264.963 193.358ZM212.302 166.904L211.948 166.551L212.623 167.287L212.302 166.904ZM212.373 166.842L212.716 167.205L212.716 167.205L212.373 166.842ZM212.37 166.839L212.705 167.21L212.705 167.21L212.37 166.839ZM212.394 166.819L212.885 166.725L212.885 166.722L212.394 166.819ZM638.635 247.426L639.129 247.507L638.635 247.426ZM655.321 179.873L655.762 179.637L655.266 178.711L654.86 179.679L655.321 179.873ZM656.002 181.166L656.446 180.937V180.937L656.002 181.166ZM667.763 210.245L667.289 210.403L667.763 210.245ZM690.405 305.555L690.897 305.469L690.405 305.555ZM739.652 296.91L739.159 296.996L739.652 296.91ZM715.207 194.464L715.682 194.306L715.207 194.464ZM700.411 158.19L699.967 158.42V158.42L700.411 158.19ZM680.806 131.545L681.132 131.166L680.806 131.545ZM643.342 122.667L643.491 123.144L643.342 122.667ZM615.936 146.902L616.367 147.155L615.936 146.902ZM589.296 239.323L588.803 239.242L589.296 239.323ZM661.5 168.724L661.007 168.808L661.009 168.822L661.012 168.835L661.5 168.724ZM661.442 168.779L661.086 168.428L661.773 169.154L661.442 168.779ZM508.496 25.8027C508.387 11.7198 496.883 0.391779 482.8 0.50078L482.807 1.50075C496.338 1.39602 507.392 12.2798 507.496 25.8104L508.496 25.8027ZM513.492 671.302L508.496 25.8027L507.496 25.8104L512.492 671.309L513.492 671.302ZM513.495 671.549C513.494 671.466 513.493 671.382 513.492 671.299L512.492 671.312C512.494 671.394 512.494 671.476 512.495 671.558L513.495 671.549ZM513.496 671.619L513.495 671.55L512.495 671.558L512.496 671.627L513.496 671.619ZM513.497 671.994C513.497 671.869 513.497 671.744 513.496 671.619L512.496 671.626C512.497 671.749 512.497 671.872 512.497 671.994H513.497ZM482.304 1.02324L512.498 672.017L513.497 671.972L483.303 0.978288L482.304 1.02324ZM513.497 672.001L483.303 0.978289L482.304 1.02324L512.498 672.046L513.497 672.001ZM429.997 737.5C475.982 737.5 513.481 708.294 513.497 672.023L512.497 672.023C512.481 707.528 475.671 736.5 429.997 736.5V737.5ZM346.497 672C346.497 708.282 384.002 737.5 429.997 737.5V736.5C384.313 736.5 347.497 707.515 347.497 672H346.497ZM429.997 606.5C384.002 606.5 346.497 635.718 346.497 672H347.497C347.497 636.485 384.313 607.5 429.997 607.5V606.5ZM462.692 611.71C452.649 608.355 441.598 606.5 429.997 606.5V607.5C441.492 607.5 452.436 609.339 462.375 612.658L462.692 611.71ZM457.498 26.1974L462.033 612.188L463.033 612.18L458.498 26.1896L457.498 26.1974ZM482.8 0.50078C468.717 0.60978 457.389 12.1145 457.498 26.1974L458.498 26.1896C458.393 12.6591 469.277 1.60548 482.807 1.50075L482.8 0.50078ZM688.746 44.8088C695.479 33.072 710.451 29.0155 722.188 35.7485L722.686 34.8811C710.47 27.8733 694.886 32.0953 687.878 44.3112L688.746 44.8088ZM697.806 78.2515C686.069 71.5185 682.013 56.5457 688.746 44.8088L687.878 44.3112C680.87 56.5272 685.092 72.1111 697.308 79.1189L697.806 78.2515ZM782.857 183.321C765.888 134.488 739.958 102.433 697.806 78.2515L697.308 79.1189C739.237 103.172 765.017 135.028 781.913 183.649L782.857 183.321ZM812.522 397.099C808.235 301.602 800.353 233.669 782.857 183.321L781.913 183.649C799.356 233.847 807.236 301.651 811.523 397.143L812.522 397.099ZM838.096 420.475C824.578 421.082 813.128 410.616 812.522 397.099L811.523 397.143C812.154 411.213 824.071 422.106 838.141 421.474L838.096 420.475ZM861.472 394.901C862.079 408.419 851.613 419.869 838.096 420.475L838.141 421.474C852.21 420.843 863.103 408.926 862.471 394.857L861.472 394.901ZM829.142 167.237C849.186 224.92 857.175 299.164 861.472 394.901L862.471 394.857C858.174 299.114 850.183 224.741 830.087 166.909L829.142 167.237ZM722.188 35.7485C775.294 66.2132 808.572 108.04 829.142 167.237L830.087 166.909C809.443 107.501 776.015 65.4741 722.686 34.8811L722.188 35.7485ZM259.139 35.1472C247.07 27.8892 231.402 31.7893 224.144 43.8583L225.001 44.3737C231.975 32.778 247.028 29.0308 258.623 36.0041L259.139 35.1472ZM364.54 151.306C341.014 96.2966 306.399 63.5679 259.139 35.1472L258.623 36.0041C305.751 64.3456 340.197 96.929 363.62 151.699L364.54 151.306ZM405.45 383.455C398.993 277.075 387.296 204.515 364.54 151.306L363.62 151.699C386.305 204.74 397.996 277.153 404.452 383.516L405.45 383.455ZM381.542 410.453C395.599 409.6 406.303 397.512 405.45 383.455L404.452 383.516C405.272 397.022 394.988 408.635 381.481 409.455L381.542 410.453ZM354.544 386.545C355.397 400.602 367.485 411.306 381.542 410.453L381.481 409.455C367.975 410.275 356.362 399.991 355.542 386.484L354.544 386.545ZM317.648 171.36C336.729 215.976 348.138 281.019 354.544 386.545L355.542 386.484C349.136 280.942 337.721 215.752 318.568 170.967L317.648 171.36ZM232.855 78.8528C273.384 103.225 299.337 128.544 317.648 171.36L318.568 170.967C300.154 127.912 274.031 102.448 233.371 77.9958L232.855 78.8528ZM224.144 43.8583C216.886 55.9273 220.786 71.5949 232.855 78.8528L233.371 77.9958C221.775 71.0225 218.028 55.9694 225.001 44.3737L224.144 43.8583ZM57.6848 377.149C58.8717 363.116 48.4579 350.778 34.4247 349.591L34.3404 350.587C47.8233 351.728 57.8288 363.582 56.6883 377.065L57.6848 377.149ZM141.662 678.092C82.2295 612.849 45.9773 515.56 57.6848 377.149L56.6883 377.065C44.9617 515.702 81.2708 613.281 140.922 678.765L141.662 678.092ZM380.195 790.313C287.545 779.896 201.525 743.808 141.662 678.092L140.922 678.765C200.988 744.704 287.257 780.87 380.083 791.307L380.195 790.313ZM650.207 749.79C570.24 785.181 472.874 800.734 380.195 790.313L380.083 791.307C472.937 801.747 570.481 786.168 650.611 750.704L650.207 749.79ZM812.972 596.018C790.133 660.212 730.554 714.23 650.207 749.79L650.611 750.704C731.107 715.078 790.952 660.896 813.914 596.354L812.972 596.018ZM845.545 580.541C832.276 575.821 817.693 582.75 812.972 596.018L813.914 596.354C818.45 583.606 832.461 576.948 845.209 581.483L845.545 580.541ZM861.022 613.114C865.742 599.845 858.813 585.262 845.545 580.541L845.209 581.483C857.958 586.019 864.615 600.03 860.08 612.778L861.022 613.114ZM670.847 796.426C758.756 757.52 831.863 695.071 861.022 613.114L860.08 612.778C831.045 694.388 758.203 756.671 670.442 795.512L670.847 796.426ZM374.497 840.994C476.097 852.417 582.557 835.501 670.847 796.426L670.442 795.512C582.316 834.515 476.033 851.404 374.609 840L374.497 840.994ZM103.959 712.436C174.159 789.5 272.869 829.567 374.497 840.994L374.609 840C273.156 828.593 174.695 788.604 104.698 711.763L103.959 712.436ZM6.86622 372.851C-5.81575 522.783 33.328 634.899 103.959 712.436L104.698 711.763C34.287 634.467 -4.80022 522.641 7.86266 372.935L6.86622 372.851ZM34.4247 349.591C20.3916 348.404 8.05321 358.818 6.86622 372.851L7.86266 372.935C9.00311 359.452 20.8576 349.447 34.3404 350.587L34.4247 349.591ZM310.997 691.026C310.997 528.97 302.179 399.631 288.784 306.528L287.794 306.67C301.18 399.713 309.997 529.001 309.997 691.026H310.997ZM285.497 716.526C299.58 716.526 310.997 705.109 310.997 691.026H309.997C309.997 704.557 299.028 715.526 285.497 715.526V716.526ZM259.997 691.026C259.997 705.109 271.414 716.526 285.497 716.526V715.526C271.966 715.526 260.997 704.557 260.997 691.026H259.997ZM238.304 313.79C251.253 403.796 259.997 530.582 259.997 691.026H260.997C260.997 530.551 252.251 403.714 239.294 313.648L238.304 313.79ZM216.642 208.033C224.363 233.457 231.82 268.726 238.304 313.79L239.294 313.648C232.806 268.556 225.34 233.233 217.599 207.742L216.642 208.033ZM205.497 178.481C208.999 185.556 212.779 195.312 216.642 208.033L217.599 207.742C213.726 194.988 209.928 185.178 206.393 178.037L205.497 178.481ZM205.457 178.4L205.497 178.481L206.393 178.037L206.353 177.956L205.457 178.4ZM191.982 230.353C196.786 205.637 201.857 188.833 206.364 178.376L205.445 177.98C200.899 188.529 195.812 205.411 191 230.162L191.982 230.353ZM170.497 561.526C170.497 404.718 179.274 295.721 191.982 230.353L191 230.162C178.274 295.624 169.497 404.696 169.497 561.526H170.497ZM144.997 587.026C159.08 587.026 170.497 575.609 170.497 561.526H169.497C169.497 575.057 158.528 586.026 144.997 586.026V587.026ZM119.497 561.526C119.497 575.609 130.914 587.026 144.997 587.026V586.026C131.466 586.026 120.497 575.057 120.497 561.526H119.497ZM141.919 220.621C128.282 290.769 119.497 403.584 119.497 561.526H120.497C120.497 403.607 129.282 290.866 142.9 220.812L141.919 220.621ZM168.045 141.941C156.979 159.039 148.593 186.288 141.919 220.621L142.9 220.812C149.571 186.497 157.929 159.411 168.884 142.485L168.045 141.941ZM195.186 119.912C182.089 123.626 173.483 133.538 168.045 141.941L168.884 142.485C174.272 134.161 182.707 124.49 195.459 120.874L195.186 119.912ZM231.946 129.067C223.258 121.538 210.23 115.645 195.186 119.912L195.459 120.874C210.078 116.728 222.767 122.436 231.292 129.823L231.946 129.067ZM251.204 155.856C246.243 145.834 240.043 136.083 231.946 129.067L231.292 129.823C239.243 136.713 245.372 146.329 250.308 156.3L251.204 155.856ZM265.442 193.213C261.072 178.825 256.345 166.243 251.204 155.856L250.308 156.3C255.417 166.622 260.125 179.149 264.485 193.503L265.442 193.213ZM288.784 306.528C282.095 260.037 274.185 222.005 265.442 193.213L264.485 193.503C273.209 222.23 281.11 260.207 287.794 306.67L288.784 306.528ZM212.623 167.287C212.661 167.256 212.692 167.228 212.716 167.205L212.029 166.478C212.023 166.484 212.007 166.499 211.98 166.521L212.623 167.287ZM212.035 166.468C212.011 166.489 211.982 166.517 211.948 166.551L212.656 167.257C212.681 167.232 212.698 167.217 212.705 167.21L212.035 166.468ZM212.885 166.722C212.867 166.632 212.82 166.526 212.722 166.441C212.629 166.36 212.528 166.332 212.458 166.323C212.339 166.308 212.247 166.341 212.229 166.347C212.172 166.367 212.132 166.393 212.126 166.397C212.101 166.412 212.082 166.427 212.077 166.432C212.061 166.444 212.046 166.457 212.035 166.468L212.705 167.21C212.71 167.206 212.707 167.208 212.699 167.215C212.698 167.216 212.682 167.228 212.66 167.242C212.655 167.245 212.615 167.271 212.559 167.291C212.541 167.297 212.45 167.33 212.33 167.315C212.261 167.306 212.16 167.278 212.066 167.197C211.969 167.112 211.922 167.006 211.904 166.916L212.885 166.722ZM212.716 167.205C212.727 167.195 212.74 167.182 212.753 167.169C212.758 167.163 212.77 167.15 212.784 167.133C212.79 167.126 212.805 167.106 212.822 167.078C212.83 167.065 212.846 167.037 212.861 166.998C212.869 166.977 212.913 166.867 212.885 166.725L211.903 166.913C211.888 166.834 211.895 166.769 211.902 166.731C211.909 166.692 211.92 166.66 211.927 166.64C211.942 166.602 211.958 166.574 211.966 166.561C211.982 166.534 211.997 166.515 212.002 166.509C212.014 166.494 212.024 166.484 212.026 166.482C212.031 166.476 212.033 166.475 212.029 166.478L212.716 167.205ZM638.142 247.345C624.696 329.215 615.497 470.62 615.497 691H616.497C616.497 470.632 625.696 329.294 639.129 247.507L638.142 247.345ZM654.86 179.679C649.562 192.314 643.637 213.885 638.142 247.345L639.129 247.507C644.619 214.077 650.528 192.595 655.782 180.066L654.86 179.679ZM656.446 180.937C656.214 180.488 655.986 180.055 655.762 179.637L654.881 180.109C655.103 180.523 655.328 180.952 655.558 181.396L656.446 180.937ZM668.238 210.087C664.181 197.893 660.194 188.181 656.446 180.937L655.558 181.396C659.275 188.579 663.243 198.239 667.289 210.403L668.238 210.087ZM690.897 305.469C684.13 266.922 676.343 234.455 668.238 210.087L667.289 210.403C675.373 234.709 683.151 267.123 689.912 305.642L690.897 305.469ZM713.497 584.474C713.497 481.633 704.415 382.469 690.897 305.469L689.912 305.642C703.419 382.58 712.497 481.686 712.497 584.474H713.497ZM737.997 608.974C724.466 608.974 713.497 598.005 713.497 584.474H712.497C712.497 598.557 723.914 609.974 737.997 609.974V608.974ZM762.497 584.474C762.497 598.005 751.528 608.974 737.997 608.974V609.974C752.08 609.974 763.497 598.557 763.497 584.474H762.497ZM739.159 296.996C753.204 377.003 762.497 479.014 762.497 584.474H763.497C763.497 478.96 754.2 376.892 740.144 296.823L739.159 296.996ZM714.733 194.622C723.854 222.044 732.145 257.04 739.159 296.996L740.144 296.823C733.125 256.838 724.824 221.791 715.682 194.306L714.733 194.622ZM699.967 158.42C705.263 168.656 710.176 180.922 714.733 194.622L715.682 194.306C711.115 180.575 706.182 168.258 700.855 157.961L699.967 158.42ZM680.48 131.924C688.538 138.86 694.858 148.546 699.967 158.42L700.855 157.961C695.722 148.039 689.332 138.223 681.132 131.166L680.48 131.924ZM643.491 123.144C658.773 118.377 671.951 124.582 680.48 131.924L681.132 131.166C672.449 123.691 658.92 117.283 643.193 122.19L643.491 123.144ZM616.367 147.155C621.768 137.932 630.245 127.277 643.491 123.144L643.193 122.19C629.59 126.433 620.949 137.351 615.504 146.65L616.367 147.155ZM589.79 239.404C596.726 197.168 605.292 166.068 616.367 147.155L615.504 146.65C604.328 165.734 595.742 196.994 588.803 239.242L589.79 239.404ZM566.497 691C566.497 470.022 575.673 325.356 589.79 239.404L588.803 239.242C574.673 325.278 565.497 470.01 565.497 691H566.497ZM590.997 715.5C577.466 715.5 566.497 704.531 566.497 691H565.497C565.497 705.083 576.914 716.5 590.997 716.5V715.5ZM615.497 691C615.497 704.531 604.528 715.5 590.997 715.5V716.5C605.08 716.5 616.497 705.083 616.497 691H615.497ZM661.012 168.835C660.99 168.736 661.003 168.655 661.011 168.617C661.02 168.575 661.033 168.543 661.041 168.525C661.057 168.489 661.073 168.462 661.08 168.452C661.095 168.429 661.109 168.413 661.113 168.408C661.123 168.395 661.131 168.387 661.133 168.385C661.138 168.379 661.141 168.377 661.138 168.379C661.135 168.382 661.127 168.39 661.111 168.404L661.773 169.154C661.797 169.133 661.817 169.114 661.833 169.099C661.84 169.091 661.85 169.082 661.86 169.071C661.864 169.067 661.874 169.056 661.885 169.043C661.89 169.037 661.904 169.02 661.919 168.997C661.926 168.986 661.942 168.96 661.958 168.924C661.966 168.905 661.979 168.873 661.988 168.831C661.996 168.793 662.01 168.712 661.987 168.613L661.012 168.835ZM661.798 169.13C661.814 169.114 661.823 169.105 661.826 169.102C661.828 169.1 661.825 169.103 661.818 169.109C661.817 169.11 661.805 169.12 661.788 169.132C661.785 169.135 661.755 169.156 661.713 169.176C661.703 169.181 661.629 169.218 661.527 169.223C661.472 169.226 661.354 169.223 661.232 169.146C661.093 169.058 661.026 168.923 661.007 168.808L661.993 168.639C661.973 168.525 661.907 168.39 661.767 168.301C661.646 168.225 661.528 168.222 661.472 168.225C661.37 168.23 661.296 168.267 661.286 168.272C661.244 168.292 661.214 168.314 661.209 168.317C661.191 168.33 661.177 168.341 661.174 168.345C661.162 168.354 661.152 168.364 661.144 168.371C661.128 168.386 661.108 168.405 661.086 168.428L661.798 169.13ZM513.497 671.978L483.303 0.978289L482.304 1.02324L512.498 672.022L513.497 671.978Z" fill="#96EBF1"/>
</g>
<defs>
<filter id="filter0_d_12_48" x="0.500061" y="0.5" width="866.004" height="852" filterUnits="userSpaceOnUse" color-interpolation-filters="sRGB">
<feFlood flood-opacity="0" result="BackgroundImageFix"/>
<feColorMatrix in="SourceAlpha" type="matrix" values="0 0 0 0 0 0 0 0 0 0 0 0 0 0 0 0 0 0 127 0" result="hardAlpha"/>
<feOffset dy="4"/>
<feGaussianBlur stdDeviation="2"/>
<feComposite in2="hardAlpha" operator="out"/>
<feColorMatrix type="matrix" values="0 0 0 0 0 0 0 0 0 0 0 0 0 0 0 0 0 0 0.25 0"/>
<feBlend mode="normal" in2="BackgroundImageFix" result="effect1_dropShadow_12_48"/>
<feBlend mode="normal" in="SourceGraphic" in2="effect1_dropShadow_12_48" result="shape"/>
</filter>
<linearGradient id="paint0_linear_12_48" x1="914.301" y1="749.353" x2="342.884" y2="133.544" gradientUnits="userSpaceOnUse">
<stop stop-color="#4FD9EC"/>
<stop offset="1" stop-color="#FFBD80"/>
</linearGradient>
</defs>
</svg>
