<svg width="865" height="851" viewBox="0 0 865 851" fill="none" xmlns="http://www.w3.org/2000/svg">
<g filter="url(#filter0_d_13_252)">
<path fill-rule="evenodd" clip-rule="evenodd" d="M481.804 0.000765204C495.61 -0.106098 506.889 10.9998 506.996 24.8065L511.992 670.305C511.993 670.388 511.994 670.471 511.995 670.554L511.996 670.623C511.997 670.746 511.997 670.87 511.997 670.994L481.804 0.000765204ZM481.804 0.000765204L511.997 671.023C511.981 706.911 474.827 736 428.997 736C383.157 736 345.997 706.898 345.997 671C345.997 635.102 383.157 606 428.997 606C440.545 606 451.542 607.847 461.533 611.184L456.998 25.1935C456.891 11.3868 467.997 0.107628 481.804 0.000765204ZM721.437 34.3148C709.461 27.4444 694.182 31.5836 687.312 43.56C680.441 55.5364 684.581 70.8148 696.557 77.6852C738.598 101.802 764.453 133.758 781.385 182.485C798.854 232.758 806.736 300.626 811.022 396.121C811.641 409.914 823.325 420.594 837.118 419.975C850.911 419.356 861.591 407.672 860.972 393.879C856.674 298.139 848.685 223.83 828.615 166.073C808.007 106.77 774.655 64.8437 721.437 34.3148ZM223.573 43.116C230.688 31.2837 246.049 27.46 257.881 34.5756C305.075 62.9567 339.605 95.6128 363.08 150.502C385.8 203.627 397.494 276.114 403.951 382.485C404.788 396.267 394.294 408.118 380.512 408.954C366.73 409.791 354.88 399.296 354.043 385.515C347.637 279.981 336.225 214.864 317.108 170.163C298.746 127.228 272.707 101.837 232.113 77.4243C220.281 70.3087 216.457 54.9483 223.573 43.116ZM33.3826 349.089C47.1406 350.253 57.3502 362.349 56.1865 376.107C44.4695 514.631 80.7502 612.065 140.292 677.428C200.257 743.256 286.401 779.383 379.139 789.81C471.905 800.24 569.36 784.675 649.409 749.247C729.831 713.654 789.543 659.554 812.443 595.186C817.071 582.178 831.369 575.384 844.377 580.012C857.385 584.64 864.179 598.938 859.551 611.946C830.454 693.729 757.479 756.095 669.645 794.969C581.437 834.008 475.065 850.911 373.553 839.497C272.013 828.08 173.427 788.052 103.329 711.099C32.8075 633.683 -6.30798 521.712 6.36444 371.893C7.52816 358.135 19.6246 347.925 33.3826 349.089ZM287.289 305.599C300.68 398.672 309.497 527.986 309.497 690.026C309.497 703.833 298.304 715.026 284.497 715.026C270.69 715.026 259.497 703.833 259.497 690.026C259.497 529.567 250.752 402.755 237.799 312.719C231.313 267.641 223.852 232.345 216.121 206.887C212.253 194.15 208.463 184.367 204.945 177.259L204.905 177.178C200.378 187.681 195.299 204.524 190.491 229.258C177.774 294.672 168.997 403.707 168.997 560.526C168.997 574.333 157.804 585.526 143.997 585.526C130.19 585.526 118.997 574.333 118.997 560.526C118.997 402.595 127.782 289.817 141.41 219.716C148.082 185.392 156.454 158.225 167.464 141.213C172.877 132.849 181.398 123.058 194.323 119.393C209.154 115.187 222.012 120.987 230.619 128.445C238.643 135.398 244.808 145.082 249.756 155.078C254.881 165.433 259.599 177.987 263.963 192.358C272.697 221.117 280.603 259.122 287.289 305.599ZM211.373 165.842C211.357 165.856 211.334 165.877 211.302 165.904C211.332 165.874 211.354 165.853 211.37 165.839C211.386 165.824 211.394 165.818 211.394 165.819C211.395 165.82 211.387 165.828 211.373 165.842ZM614.997 690C614.997 469.626 624.196 328.254 637.635 246.426C643.128 212.981 649.045 191.455 654.321 178.873C654.544 179.289 654.771 179.72 655.002 180.166C658.735 187.38 662.712 197.066 666.763 209.245C674.858 233.582 682.64 266.023 689.405 304.555C702.917 381.525 711.997 480.66 711.997 583.474C711.997 597.281 723.19 608.474 736.997 608.474C750.804 608.474 761.997 597.281 761.997 583.474C761.997 477.987 752.702 375.948 738.652 295.91C731.635 255.939 723.339 220.917 714.207 193.464C709.645 179.748 704.722 167.457 699.411 157.19C694.29 147.293 687.935 137.541 679.806 130.545C671.2 123.136 657.846 116.83 642.342 121.667C628.918 125.855 620.359 136.642 614.936 145.902C603.81 164.901 595.234 196.081 588.296 238.323C574.173 324.317 564.997 469.016 564.997 690C564.997 703.807 576.19 715 589.997 715C603.804 715 614.997 703.807 614.997 690ZM660.5 167.724C660.5 167.725 660.481 167.744 660.442 167.779C660.48 167.74 660.5 167.723 660.5 167.724Z" fill="url(#paint0_linear_13_252)"/>
</g>
<defs>
<filter id="filter0_d_13_252" x="0" y="0" width="865.004" height="851" filterUnits="userSpaceOnUse" color-interpolation-filters="sRGB">
<feFlood flood-opacity="0" result="BackgroundImageFix"/>
<feColorMatrix in="SourceAlpha" type="matrix" values="0 0 0 0 0 0 0 0 0 0 0 0 0 0 0 0 0 0 127 0" result="hardAlpha"/>
<feOffset dy="4"/>
<feGaussianBlur stdDeviation="2"/>
<feComposite in2="hardAlpha" operator="out"/>
<feColorMatrix type="matrix" values="0 0 0 0 0 0 0 0 0 0 0 0 0 0 0 0 0 0 0.25 0"/>
<feBlend mode="normal" in2="BackgroundImageFix" result="effect1_dropShadow_13_252"/>
<feBlend mode="normal" in="SourceGraphic" in2="effect1_dropShadow_13_252" result="shape"/>
</filter>
<linearGradient id="paint0_linear_13_252" x1="913.301" y1="748.353" x2="341.884" y2="132.544" gradientUnits="userSpaceOnUse">
<stop stop-color="#4FD9EC"/>
<stop offset="1" stop-color="#FFBD80"/>
</linearGradient>
</defs>
</svg>
